<?xml version="1.0" encoding="UTF-8"?>
<svg xmlns="http://www.w3.org/2000/svg" width="1024" height="1024" viewBox="0 0 1024 1024" role="img" aria-labelledby="title desc">
  <title id="title">gr_colors icon</title>
  <desc id="desc">A golden-ratio color palette icon with nine lab colors and tint bands.</desc>
  <defs>
    <linearGradient id="plate" x1="128" y1="96" x2="896" y2="928" gradientUnits="userSpaceOnUse">
      <stop offset="0" stop-color="#ffffff"/>
      <stop offset="1" stop-color="#e9edf2"/>
    </linearGradient>
    <filter id="shadow" x="-20%" y="-20%" width="140%" height="140%">
      <feDropShadow dx="0" dy="18" stdDeviation="28" flood-color="#1f2933" flood-opacity="0.22"/>
    </filter>
  </defs>
  <rect width="1024" height="1024" rx="216" fill="#f6f8fb"/>
  <rect x="112" y="112" width="800" height="800" rx="168" fill="url(#plate)" filter="url(#shadow)"/>
  <rect x="172" y="172" width="680" height="680" rx="118" fill="#ffffff" stroke="#1f2933" stroke-width="18"/>
  <g transform="translate(232 236)">
    <rect x="0" y="0" width="142" height="142" rx="28" fill="#e6212d"/>
    <rect x="178" y="0" width="142" height="142" rx="28" fill="#2764d8"/>
    <rect x="356" y="0" width="142" height="142" rx="28" fill="#cf2cae"/>
    <rect x="0" y="178" width="142" height="142" rx="28" fill="#18a9c9"/>
    <rect x="178" y="178" width="142" height="142" rx="28" fill="#f28c22"/>
    <rect x="356" y="178" width="142" height="142" rx="28" fill="#7b4ac9"/>
    <rect x="0" y="356" width="142" height="142" rx="28" fill="#2c9f45"/>
    <rect x="178" y="356" width="142" height="142" rx="28" fill="#e7c61e"/>
    <rect x="356" y="356" width="142" height="142" rx="28" fill="#3abf99"/>
  </g>
  <g transform="translate(232 764)" opacity="0.85">
    <rect x="0" y="0" width="78" height="22" rx="11" fill="#e6212d"/>
    <rect x="92" y="0" width="78" height="22" rx="11" fill="#eb5962"/>
    <rect x="184" y="0" width="78" height="22" rx="11" fill="#f08a91"/>
    <rect x="276" y="0" width="78" height="22" rx="11" fill="#f5b8bc"/>
    <rect x="368" y="0" width="78" height="22" rx="11" fill="#fae3e5"/>
  </g>
  <path d="M706 213c-6 154-82 247-199 265 101 31 171 96 186 220" fill="none" stroke="#1f2933" stroke-width="24" stroke-linecap="round"/>
</svg>
